<svg xmlns="http://www.w3.org/2000/svg" width="600" height="400" viewBox="0 0 600 400"><rect width="100%" height="100%" fill="#000000"/><path fill="#ffffff" d="M141.77 208.075q.45 0 .8.35l2.17 2.36q-1.8 2.23-4.44 3.42-2.63 1.19-6.32 1.19-3.3 0-5.94-1.13-2.63-1.13-4.5-3.14-1.86-2.01-2.85-4.79-1-2.79-1-6.09 0-3.34 1.07-6.12 1.06-2.78 3-4.79 1.94-2.01 4.62-3.12 2.69-1.12 5.95-1.12 3.24 0 5.75 1.06 2.51 1.07 4.27 2.79l-1.84 2.57q-.17.24-.42.43-.26.18-.71.18-.31 0-.64-.17-.32-.18-.71-.43-.39-.26-.91-.57-.51-.31-1.18-.56-.68-.26-1.57-.43-.89-.18-2.06-.18-1.99 0-3.64.71-1.65.71-2.84 2.05-1.19 1.34-1.85 3.28-.65 1.94-.65 4.42 0 2.5.71 4.45.7 1.94 1.91 3.28 1.21 1.33 2.85 2.04 1.64.7 3.53.7 1.13 0 2.04-.12.91-.12 1.68-.39.77-.27 1.45-.69.69-.42 1.37-1.03.2-.19.43-.3.22-.11.47-.11Zm9.96-5.95h9.56q0-.98-.28-1.85-.28-.87-.83-1.53-.56-.65-1.41-1.03-.85-.38-1.97-.38-2.2 0-3.46 1.25-1.26 1.25-1.61 3.54Zm12.92 3.06h-13.02q.12 1.62.57 2.8.45 1.18 1.19 1.94.74.77 1.76 1.15 1.01.38 2.24.38 1.23 0 2.12-.29.89-.28 1.56-.63t1.17-.64q.5-.28.97-.28.64 0 .95.47l1.45 1.84q-.84.99-1.89 1.65-1.04.67-2.18 1.07-1.14.4-2.31.56-1.18.17-2.29.17-2.19 0-4.08-.73-1.89-.73-3.28-2.15-1.39-1.43-2.19-3.53-.8-2.1-.8-4.87 0-2.15.69-4.05.7-1.89 2-3.3 1.3-1.4 3.18-2.22 1.88-.82 4.23-.82 1.99 0 3.67.63 1.68.64 2.89 1.86 1.21 1.22 1.9 2.99.69 1.78.69 4.05 0 1.15-.25 1.55-.25.4-.94.4Zm21.95 10.21q-2.74 0-4.21-1.55-1.47-1.55-1.47-4.27v-11.75h-2.15q-.41 0-.7-.27-.28-.26-.28-.8v-2.01l3.38-.55 1.07-5.74q.1-.41.39-.63.28-.23.73-.23h2.63v6.62h5.61v3.61h-5.61v11.4q0 .98.48 1.53.48.56 1.32.56.47 0 .79-.11.32-.12.55-.24.24-.12.42-.24.19-.11.37-.11.23 0 .37.11.15.12.31.34l1.52 2.46q-1.11.93-2.54 1.4-1.44.47-2.98.47Zm12.24-13.27h9.55q0-.98-.27-1.85-.28-.87-.83-1.53-.56-.65-1.41-1.03-.85-.38-1.98-.38-2.19 0-3.45 1.25-1.26 1.25-1.61 3.54Zm12.92 3.06h-13.02q.12 1.62.57 2.8.45 1.18 1.19 1.94.74.77 1.75 1.15 1.02.38 2.25.38t2.12-.29q.89-.28 1.56-.63t1.17-.64q.5-.28.97-.28.64 0 .94.47l1.46 1.84q-.84.99-1.89 1.65-1.04.67-2.18 1.07-1.14.4-2.32.56-1.17.17-2.28.17-2.2 0-4.08-.73-1.89-.73-3.28-2.15-1.4-1.43-2.19-3.53-.8-2.1-.8-4.87 0-2.15.69-4.05.7-1.89 2-3.3 1.3-1.4 3.18-2.22 1.87-.82 4.23-.82 1.99 0 3.67.63 1.68.64 2.89 1.86 1.21 1.22 1.9 2.99.69 1.78.69 4.05 0 1.15-.25 1.55-.25.4-.94.4Zm16.56-1.19 7.2 11.07h-4.88q-.56 0-.89-.29-.34-.28-.57-.65l-4.45-7.32q-.1.35-.23.65-.14.31-.3.58l-3.94 6.09q-.22.35-.55.64-.33.3-.82.3h-4.53l7.22-10.84-6.93-10.19h4.88q.55 0 .82.15.26.15.47.5l4.4 7.01q.23-.69.64-1.37l3.55-5.53q.45-.76 1.17-.76h4.65l-6.91 9.96Zm16.83 11.4q-2.75 0-4.21-1.55-1.47-1.55-1.47-4.27v-11.75h-2.15q-.41 0-.7-.27-.28-.26-.28-.8v-2.01l3.38-.55 1.06-5.74q.11-.41.39-.63.29-.23.74-.23h2.63v6.62h5.61v3.61h-5.61v11.4q0 .98.48 1.53.48.56 1.32.56.47 0 .79-.11.32-.12.55-.24.24-.12.42-.24.19-.11.37-.11.23 0 .37.11.14.12.31.34l1.52 2.46q-1.11.93-2.55 1.4-1.43.47-2.97.47Zm12.24-13.27h9.55q0-.98-.27-1.85-.28-.87-.83-1.53-.56-.65-1.41-1.03-.85-.38-1.98-.38-2.19 0-3.45 1.25-1.26 1.25-1.61 3.54Zm12.91 3.06h-13.01q.12 1.62.57 2.8.45 1.18 1.19 1.94.74.77 1.75 1.15 1.02.38 2.25.38t2.12-.29q.89-.28 1.56-.63.66-.35 1.17-.64.5-.28.97-.28.63 0 .94.47l1.46 1.84q-.84.99-1.89 1.65-1.04.67-2.18 1.07-1.14.4-2.32.56-1.18.17-2.28.17-2.2 0-4.08-.73-1.89-.73-3.28-2.15-1.4-1.43-2.2-3.53-.8-2.1-.8-4.87 0-2.15.7-4.05.7-1.89 2-3.3 1.3-1.4 3.18-2.22 1.87-.82 4.23-.82 1.99 0 3.67.63 1.68.64 2.89 1.86 1.21 1.22 1.9 2.99.68 1.78.68 4.05 0 1.15-.24 1.55-.25.4-.95.4Zm28.15 3.65v-9.43q-.86-1.05-1.87-1.48-1.02-.43-2.19-.43-1.15 0-2.07.43-.92.43-1.58 1.3-.65.88-1 2.22-.35 1.34-.35 3.16 0 1.85.3 3.13.29 1.28.85 2.09.55.81 1.35 1.17.8.36 1.78.36 1.58 0 2.69-.66 1.11-.65 2.09-1.86Zm0-24.23h5.06v30.46h-3.09q-1.01 0-1.27-.92l-.43-2.03q-1.27 1.45-2.92 2.36-1.65.9-3.85.9-1.72 0-3.15-.72-1.44-.72-2.47-2.08-1.04-1.36-1.6-3.37-.57-2.01-.57-4.6 0-2.33.64-4.34.63-2.01 1.82-3.49 1.19-1.47 2.85-2.3 1.66-.83 3.73-.83 1.77 0 3.02.55t2.23 1.5v-11.09Zm19.37 9.1q2.34 0 4.26.76 1.91.76 3.28 2.15 1.36 1.39 2.1 3.4t.74 4.49q0 2.5-.74 4.51t-2.1 3.43q-1.37 1.41-3.28 2.17-1.92.76-4.26.76-2.35 0-4.28-.76-1.93-.76-3.29-2.17-1.36-1.42-2.11-3.43-.75-2.01-.75-4.51 0-2.48.75-4.49.75-2.01 2.11-3.4 1.36-1.39 3.29-2.15t4.28-.76Zm0 17.77q2.63 0 3.89-1.76 1.26-1.76 1.26-5.17 0-3.4-1.26-5.18-1.26-1.79-3.89-1.79-2.66 0-3.94 1.8-1.28 1.79-1.28 5.17 0 3.39 1.28 5.16t3.94 1.77Zm14.41-17.44h5.09v21.03h-5.09v-21.03Zm5.79-6.13q0 .65-.27 1.23-.27.57-.71 1-.44.43-1.03.69-.6.26-1.27.26-.66 0-1.24-.26-.59-.26-1.02-.69-.43-.43-.69-1-.25-.58-.25-1.23 0-.68.25-1.27.26-.6.69-1.03.43-.43 1.02-.69.58-.25 1.24-.25.67 0 1.27.25.59.26 1.03.69.44.43.71 1.03.27.59.27 1.27Zm11.48 27.49q-2.75 0-4.22-1.55-1.46-1.55-1.46-4.27v-11.75h-2.16q-.41 0-.69-.27-.29-.26-.29-.8v-2.01l3.38-.55 1.07-5.74q.1-.41.39-.63.29-.23.74-.23h2.62v6.62h5.62v3.61h-5.62v11.4q0 .98.48 1.53.48.56 1.32.56.48 0 .79-.11.32-.12.56-.24.23-.12.42-.24.18-.11.37-.11.22 0 .37.11.14.12.3.34l1.52 2.46q-1.11.93-2.54 1.4-1.44.47-2.97.47Zm22.2-13.27h9.55q0-.98-.28-1.85-.27-.87-.83-1.53-.55-.65-1.4-1.03-.85-.38-1.98-.38-2.19 0-3.45 1.25-1.26 1.25-1.61 3.54Zm12.91 3.06h-13.02q.13 1.62.58 2.8.45 1.18 1.19 1.94.74.77 1.75 1.15 1.02.38 2.25.38t2.12-.29q.89-.28 1.56-.63.66-.35 1.16-.64.51-.28.98-.28.63 0 .94.47l1.46 1.84q-.84.99-1.89 1.65-1.05.67-2.18 1.07-1.14.4-2.32.56-1.18.17-2.29.17-2.19 0-4.08-.73-1.88-.73-3.28-2.15-1.39-1.43-2.19-3.53-.8-2.1-.8-4.87 0-2.15.7-4.05.7-1.89 2-3.3 1.3-1.4 3.18-2.22 1.87-.82 4.23-.82 1.99 0 3.67.63 1.68.64 2.89 1.86 1.21 1.22 1.89 2.99.69 1.78.69 4.05 0 1.15-.24 1.55-.25.4-.95.4Zm-5.45-19.76 4.69 5.7h-3.38q-.29 0-.58-.12-.3-.11-.59-.4l-2.01-2.13q-.22-.2-.43-.49-.22.29-.43.49l-2.05 2.13q-.24.27-.55.39-.31.13-.62.13h-3.5l4.69-5.7h4.76Zm17.44 29.97q-2.74 0-4.21-1.55-1.46-1.55-1.46-4.27v-11.75h-2.16q-.41 0-.69-.27-.29-.26-.29-.8v-2.01l3.38-.55 1.07-5.74q.1-.41.39-.63.28-.23.74-.23h2.62v6.62h5.62v3.61h-5.62v11.4q0 .98.48 1.53.48.56 1.32.56.48 0 .79-.11.32-.12.56-.24.23-.12.42-.24.18-.11.37-.11.22 0 .36.11.15.12.31.34l1.52 2.46q-1.11.93-2.54 1.4-1.44.47-2.98.47Zm12.71-20.09.31 2.38q.99-1.89 2.34-2.97 1.35-1.07 3.2-1.07 1.45 0 2.33.63l-.32 3.8q-.11.36-.3.52-.2.15-.52.15-.31 0-.92-.1-.6-.1-1.17-.1-.85 0-1.5.24-.66.25-1.18.71-.52.46-.92 1.12-.4.65-.75 1.49v12.96h-5.06v-21.03h2.97q.78 0 1.08.27.31.28.41 1Zm14.83 6.82h9.55q0-.98-.28-1.85-.27-.87-.83-1.53-.55-.65-1.4-1.03-.85-.38-1.98-.38-2.19 0-3.45 1.25-1.27 1.25-1.61 3.54Zm12.91 3.06h-13.02q.13 1.62.58 2.8.45 1.18 1.19 1.94.73.77 1.75 1.15 1.01.38 2.24.38 1.23 0 2.13-.29.89-.28 1.55-.63.67-.35 1.17-.64.5-.28.98-.28.63 0 .94.47l1.45 1.84q-.84.99-1.88 1.65-1.05.67-2.18 1.07-1.14.4-2.32.56-1.18.17-2.29.17-2.19 0-4.08-.73-1.88-.73-3.28-2.15-1.39-1.43-2.19-3.53-.8-2.1-.8-4.87 0-2.15.7-4.05.69-1.89 2-3.3 1.3-1.4 3.17-2.22 1.88-.82 4.24-.82 1.99 0 3.67.63 1.68.64 2.89 1.86 1.21 1.22 1.89 2.99.69 1.78.69 4.05 0 1.15-.25 1.55-.24.4-.94.4Zm15.01-20.58h5.06v30.46h-5.06v-30.46Zm23.18 9.43h5.07v21.03h-3.1q-1 0-1.27-.92l-.35-1.68q-1.29 1.31-2.85 2.12t-3.67.81q-1.72 0-3.04-.59-1.32-.58-2.23-1.65-.9-1.06-1.36-2.53-.46-1.46-.46-3.23v-13.36h5.06v13.36q0 1.93.89 2.99.9 1.05 2.68 1.05 1.31 0 2.46-.58 1.15-.59 2.17-1.61v-15.21Z"/></svg>